<mxfile host="app.diagrams.net" modified="2024-01-27T15:16:21.963Z" agent="Mozilla/5.0 (Windows NT 10.0; Win64; x64) AppleWebKit/537.36 (KHTML, like Gecko) Chrome/120.0.0.0 Safari/537.36" etag="7zHRVq6aJ-DTDraCix0u" version="23.0.0" type="github">
  <diagram name="第 1 页" id="Njb2HU4U9pL1o-MF5mix">
    <mxGraphModel dx="1018" dy="604" grid="1" gridSize="10" guides="1" tooltips="1" connect="1" arrows="1" fold="1" page="1" pageScale="1" pageWidth="827" pageHeight="1169" math="0" shadow="0">
      <root>
        <mxCell id="0" />
        <mxCell id="1" parent="0" />
        <mxCell id="3F04MWY9Rw27dz69qiCr-29" value="" style="points=[[0.25,0,0],[0.5,0,0],[0.75,0,0],[1,0.25,0],[1,0.5,0],[1,0.75,0],[0.75,1,0],[0.5,1,0],[0.25,1,0],[0,0.75,0],[0,0.5,0],[0,0.25,0]];shape=mxgraph.bpmn.task;whiteSpace=wrap;rectStyle=rounded;size=10;html=1;container=1;expand=0;collapsible=0;taskMarker=abstract;fillColor=#f5f5f5;fontColor=#333333;strokeColor=default;labelPosition=left;verticalLabelPosition=top;align=right;verticalAlign=bottom;dashed=1;fontSize=12;fontStyle=1" vertex="1" parent="1">
          <mxGeometry x="200" y="280" width="360" height="160" as="geometry" />
        </mxCell>
        <mxCell id="3F04MWY9Rw27dz69qiCr-33" value="Flow manager" style="rounded=1;whiteSpace=wrap;html=1;fillColor=#dae8fc;strokeColor=#6c8ebf;fontSize=12;fontStyle=1" vertex="1" parent="3F04MWY9Rw27dz69qiCr-29">
          <mxGeometry x="20" y="10" width="100" height="140" as="geometry" />
        </mxCell>
        <mxCell id="3F04MWY9Rw27dz69qiCr-3" value="Feature extraction" style="rounded=1;whiteSpace=wrap;html=1;fillColor=#dae8fc;strokeColor=#6c8ebf;fontSize=12;fontStyle=1" vertex="1" parent="3F04MWY9Rw27dz69qiCr-29">
          <mxGeometry x="200" y="10" width="120" height="48.75" as="geometry" />
        </mxCell>
        <mxCell id="3F04MWY9Rw27dz69qiCr-4" value="Running DL models" style="rounded=1;whiteSpace=wrap;html=1;fillColor=#dae8fc;strokeColor=#6c8ebf;fontSize=12;fontStyle=1" vertex="1" parent="3F04MWY9Rw27dz69qiCr-29">
          <mxGeometry x="200" y="100" width="120" height="45" as="geometry" />
        </mxCell>
        <mxCell id="3F04MWY9Rw27dz69qiCr-61" value="" style="endArrow=classic;html=1;rounded=0;endFill=1;endSize=6;fillColor=#f0a30a;strokeColor=#808080;strokeWidth=5;entryX=0;entryY=0.5;entryDx=0;entryDy=0;exitX=0.998;exitY=0.18;exitDx=0;exitDy=0;exitPerimeter=0;fontSize=12;fontStyle=1" edge="1" parent="3F04MWY9Rw27dz69qiCr-29" source="3F04MWY9Rw27dz69qiCr-33" target="3F04MWY9Rw27dz69qiCr-3">
          <mxGeometry width="50" height="50" relative="1" as="geometry">
            <mxPoint x="440" y="210" as="sourcePoint" />
            <mxPoint x="520" y="210" as="targetPoint" />
          </mxGeometry>
        </mxCell>
        <mxCell id="3F04MWY9Rw27dz69qiCr-63" value="" style="endArrow=classic;html=1;rounded=0;endFill=1;endSize=6;fillColor=#dae8fc;strokeColor=#6c8ebf;strokeWidth=5;entryX=0.5;entryY=0;entryDx=0;entryDy=0;exitX=0.5;exitY=1;exitDx=0;exitDy=0;fontSize=12;fontStyle=1" edge="1" parent="3F04MWY9Rw27dz69qiCr-29" source="3F04MWY9Rw27dz69qiCr-3" target="3F04MWY9Rw27dz69qiCr-4">
          <mxGeometry width="50" height="50" relative="1" as="geometry">
            <mxPoint x="410" y="210" as="sourcePoint" />
            <mxPoint x="490" y="210" as="targetPoint" />
          </mxGeometry>
        </mxCell>
        <mxCell id="3F04MWY9Rw27dz69qiCr-64" value="" style="endArrow=classic;html=1;rounded=0;endFill=1;endSize=6;fillColor=#d5e8d4;strokeColor=#82b366;strokeWidth=5;entryX=0.994;entryY=0.804;entryDx=0;entryDy=0;exitX=0;exitY=0.5;exitDx=0;exitDy=0;entryPerimeter=0;fontSize=12;fontStyle=1" edge="1" parent="3F04MWY9Rw27dz69qiCr-29" source="3F04MWY9Rw27dz69qiCr-4" target="3F04MWY9Rw27dz69qiCr-33">
          <mxGeometry width="50" height="50" relative="1" as="geometry">
            <mxPoint x="410" y="239.5" as="sourcePoint" />
            <mxPoint x="490" y="239.5" as="targetPoint" />
          </mxGeometry>
        </mxCell>
        <mxCell id="3F04MWY9Rw27dz69qiCr-1" value="Packets" style="verticalLabelPosition=middle;verticalAlign=middle;html=1;shape=mxgraph.basic.layered_rect;dx=10;outlineConnect=0;whiteSpace=wrap;horizontal=1;fontStyle=1;labelPosition=center;align=center;fontFamily=Times New Roman;fillColor=#f5f5f5;fontColor=#333333;strokeColor=#666666;fontSize=12;" vertex="1" parent="1">
          <mxGeometry x="60" y="280" width="90" height="50" as="geometry" />
        </mxCell>
        <mxCell id="3F04MWY9Rw27dz69qiCr-6" value="" style="sketch=0;pointerEvents=1;shadow=0;dashed=0;html=1;strokeColor=none;fillColor=#505050;labelPosition=center;verticalLabelPosition=bottom;verticalAlign=top;outlineConnect=0;align=center;shape=mxgraph.office.devices.nic;fontSize=12;fontStyle=1" vertex="1" parent="1">
          <mxGeometry x="60" y="380" width="100" height="60" as="geometry" />
        </mxCell>
        <mxCell id="3F04MWY9Rw27dz69qiCr-19" value="&lt;font style=&quot;font-size: 12px;&quot;&gt;PCIE&lt;/font&gt;" style="strokeWidth=2;strokeColor=#000000;dashed=0;align=center;html=1;fontSize=12;shape=mxgraph.eip.messageChannel;fontStyle=1" vertex="1" parent="1">
          <mxGeometry x="60" y="500" width="500" height="20" as="geometry" />
        </mxCell>
        <mxCell id="3F04MWY9Rw27dz69qiCr-27" value="Training DL models" style="rounded=1;whiteSpace=wrap;html=1;fillColor=#e1d5e7;strokeColor=#9673a6;fontSize=12;fontStyle=1" vertex="1" parent="1">
          <mxGeometry x="600" y="330" width="120" height="60" as="geometry" />
        </mxCell>
        <mxCell id="3F04MWY9Rw27dz69qiCr-32" value="Network package" style="text;whiteSpace=wrap;verticalAlign=middle;fontSize=11;" vertex="1" parent="1">
          <mxGeometry x="690" y="440" width="120" height="20" as="geometry" />
        </mxCell>
        <mxCell id="3F04MWY9Rw27dz69qiCr-50" value="" style="endArrow=classic;html=1;rounded=0;entryX=1;entryY=0.5;entryDx=0;entryDy=0;exitX=0;exitY=0.5;exitDx=0;exitDy=0;dashed=1;fontSize=12;fontStyle=1" edge="1" parent="1" source="3F04MWY9Rw27dz69qiCr-27" target="3F04MWY9Rw27dz69qiCr-4">
          <mxGeometry width="50" height="50" relative="1" as="geometry">
            <mxPoint x="360" y="470" as="sourcePoint" />
            <mxPoint x="410" y="420" as="targetPoint" />
          </mxGeometry>
        </mxCell>
        <mxCell id="3F04MWY9Rw27dz69qiCr-51" value="Extracted feature" style="text;whiteSpace=wrap;verticalAlign=middle;fontSize=11;" vertex="1" parent="1">
          <mxGeometry x="690" y="470" width="120" height="20" as="geometry" />
        </mxCell>
        <mxCell id="3F04MWY9Rw27dz69qiCr-52" value="Inference result" style="text;whiteSpace=wrap;verticalAlign=middle;fontSize=11;" vertex="1" parent="1">
          <mxGeometry x="690" y="500" width="120" height="20" as="geometry" />
        </mxCell>
        <mxCell id="3F04MWY9Rw27dz69qiCr-55" value="" style="endArrow=classic;html=1;rounded=0;endFill=1;endSize=6;fillColor=#dae8fc;strokeColor=#6c8ebf;strokeWidth=5;fontSize=12;fontStyle=1" edge="1" parent="1">
          <mxGeometry width="50" height="50" relative="1" as="geometry">
            <mxPoint x="600" y="480" as="sourcePoint" />
            <mxPoint x="680" y="480" as="targetPoint" />
          </mxGeometry>
        </mxCell>
        <mxCell id="3F04MWY9Rw27dz69qiCr-56" value="" style="endArrow=classic;html=1;rounded=0;endFill=1;endSize=6;fillColor=#f0a30a;strokeColor=#808080;strokeWidth=5;fontSize=12;fontStyle=1" edge="1" parent="1">
          <mxGeometry width="50" height="50" relative="1" as="geometry">
            <mxPoint x="600" y="450" as="sourcePoint" />
            <mxPoint x="680" y="450" as="targetPoint" />
          </mxGeometry>
        </mxCell>
        <mxCell id="3F04MWY9Rw27dz69qiCr-57" value="" style="endArrow=classic;html=1;rounded=0;endFill=1;endSize=6;fillColor=#d5e8d4;strokeColor=#82b366;strokeWidth=5;fontSize=12;fontStyle=1" edge="1" parent="1">
          <mxGeometry width="50" height="50" relative="1" as="geometry">
            <mxPoint x="600" y="509.5" as="sourcePoint" />
            <mxPoint x="680" y="509.5" as="targetPoint" />
          </mxGeometry>
        </mxCell>
        <mxCell id="3F04MWY9Rw27dz69qiCr-58" value="" style="endArrow=classic;html=1;rounded=0;endFill=1;endSize=6;fillColor=#f0a30a;strokeColor=#808080;strokeWidth=5;exitX=0;exitY=0;exitDx=50;exitDy=50;exitPerimeter=0;startArrow=classic;startFill=1;fontSize=12;fontStyle=1" edge="1" parent="1" source="3F04MWY9Rw27dz69qiCr-1" target="3F04MWY9Rw27dz69qiCr-6">
          <mxGeometry width="50" height="50" relative="1" as="geometry">
            <mxPoint x="610" y="460" as="sourcePoint" />
            <mxPoint x="690" y="460" as="targetPoint" />
          </mxGeometry>
        </mxCell>
        <mxCell id="3F04MWY9Rw27dz69qiCr-59" value="" style="endArrow=classic;html=1;rounded=0;endFill=1;endSize=6;fillColor=#f0a30a;strokeColor=#808080;strokeWidth=5;entryX=0;entryY=0;entryDx=50;entryDy=0;entryPerimeter=0;startArrow=classic;startFill=1;fontSize=12;fontStyle=1" edge="1" parent="1" source="3F04MWY9Rw27dz69qiCr-6" target="3F04MWY9Rw27dz69qiCr-19">
          <mxGeometry width="50" height="50" relative="1" as="geometry">
            <mxPoint x="110" y="450" as="sourcePoint" />
            <mxPoint x="110" y="490" as="targetPoint" />
          </mxGeometry>
        </mxCell>
        <mxCell id="3F04MWY9Rw27dz69qiCr-60" value="" style="endArrow=classic;html=1;rounded=0;endFill=1;endSize=6;fillColor=#f0a30a;strokeColor=#808080;strokeWidth=5;entryX=0.5;entryY=1;entryDx=0;entryDy=0;exitX=0;exitY=0;exitDx=210;exitDy=0;exitPerimeter=0;startArrow=classic;startFill=1;fontSize=12;fontStyle=1" edge="1" parent="1" source="3F04MWY9Rw27dz69qiCr-19" target="3F04MWY9Rw27dz69qiCr-33">
          <mxGeometry width="50" height="50" relative="1" as="geometry">
            <mxPoint x="630" y="480" as="sourcePoint" />
            <mxPoint x="710" y="480" as="targetPoint" />
          </mxGeometry>
        </mxCell>
      </root>
    </mxGraphModel>
  </diagram>
</mxfile>
